<?xml version="1.0" encoding="UTF-8" standalone="no"?>
<!DOCTYPE svg PUBLIC "-//W3C//DTD SVG 20010904//EN"
              "http://www.w3.org/TR/2001/REC-SVG-20010904/DTD/svg10.dtd">

<svg xmlns="http://www.w3.org/2000/svg"
     width="1.38889in" height="1.38889in"
     viewBox="0 0 100 100">
  <path id="Sans nom #1"
        fill="none" stroke="black" stroke-width="1"
        d="M 50.00,16.06
           C 50.00,16.06 31.00,41.94 31.00,41.94
             33.00,43.00 33.00,43.00 37.00,44.00
             37.00,44.00 22.00,63.00 22.00,63.00
             25.13,64.94 25.13,64.94 28.94,66.00
             28.94,66.00 14.00,84.00 14.00,84.00
             27.75,92.06 73.44,92.06 86.94,84.06
             86.94,84.06 72.00,66.06 72.00,66.06
             75.94,65.06 75.94,65.06 78.94,63.00
             78.94,63.00 63.94,44.00 63.94,44.00
             68.00,43.06 68.00,43.06 69.88,41.94
             69.88,41.94 50.00,16.06 50.00,16.06 Z" />
</svg>
